<?xml version="1.0" encoding="UTF-8"?>
<svg version="1.1" xmlns="http://www.w3.org/2000/svg" width="500" height="500">

<path d="M0 0 C4.91087643 2.09050153 6.71620907 6.94140842 8.95751953 11.51953125 C9.73579102 13.00259766 9.73579102 13.00259766 10.52978516 14.515625 C11.48327732 16.33286888 12.42126042 18.15839324 13.33862305 19.99414062 C14.23480938 21.95930391 14.23480938 21.95930391 15.39501953 23.01953125 C16.66242947 33.0320698 13.68398781 41.73994219 10.39501953 51.01953125 C9.74856936 52.86566954 9.10277091 54.71203613 8.45751953 56.55859375 C7.421906 59.52169535 6.38537539 62.48441747 5.34277344 65.44506836 C3.08658384 71.89124823 1.0553002 78.3623687 -0.80761719 84.93139648 C-3.05023479 92.75217052 -5.85093347 100.3676164 -8.60498047 108.01953125 C-12.10140845 118.06980182 -15.18930473 128.27112695 -18.23779297 138.46484375 C-21.32290313 148.75758298 -24.53744925 158.95962839 -28.19042969 169.06640625 C-29.9340042 173.93146209 -31.35295294 178.75609336 -32.60498047 183.76953125 C-34.25184508 189.6690589 -36.4334458 194.48579758 -41.60498047 198.01953125 C-49.47410112 201.16038847 -57.82606494 202.8050167 -66.07275391 204.66381836 C-68.49634026 205.21072299 -70.91790118 205.76600539 -73.33935547 206.32226562 C-74.88351404 206.67367075 -76.4277811 207.02459959 -77.97216797 207.375 C-78.6940329 207.54057907 -79.41589783 207.70615814 -80.15963745 207.87675476 C-83.04458282 208.52331778 -85.63763397 209.01953125 -88.60498047 209.01953125 C-84.71154501 213.51889872 -80.75751006 217.95209281 -76.72998047 222.33203125 C-73.45968574 225.91214337 -70.3247143 229.54869362 -67.29248047 233.33203125 C-64.74454958 236.50672588 -62.13208385 239.55996072 -59.32763672 242.5078125 C-58.75376221 243.11133545 -58.1798877 243.7148584 -57.58862305 244.33666992 C-56.47060865 245.50254749 -55.34466785 246.66090009 -54.20922852 247.80981445 C-46.76080526 255.56959027 -43.83060976 262.45679453 -43.94091797 273.22265625 C-43.93613434 274.26347351 -43.93135071 275.30429077 -43.92642212 276.37664795 C-43.92303911 278.56166102 -43.93212863 280.74672582 -43.953125 282.93164062 C-43.98002108 286.27457901 -43.95326531 289.61419311 -43.92138672 292.95703125 C-43.92468898 295.08724697 -43.93109139 297.21746063 -43.94091797 299.34765625 C-43.93079681 300.34355774 -43.92067566 301.33945923 -43.9102478 302.36553955 C-43.98740324 306.92594366 -44.12040451 309.31937535 -46.76660156 313.14282227 C-51.80952125 316.47715253 -56.98089056 315.77927941 -62.85498047 315.70703125 C-64.04478516 315.73474609 -65.23458984 315.76246094 -66.46044922 315.79101562 C-76.59456303 315.76302084 -81.88685727 312.56872791 -89.10498047 305.83203125 C-92.79086403 301.98403707 -96.07092394 297.80421504 -99.40966797 293.65625 C-101.77570387 290.8144809 -104.28743136 288.24445321 -106.94091797 285.67578125 C-109.29115627 283.33657694 -111.42507096 280.83068755 -113.58935547 278.3203125 C-116.04978316 275.51180105 -118.57473039 272.76491246 -121.10498047 270.01953125 C-124.70530495 266.10989846 -128.24916061 262.16086186 -131.72998047 258.14453125 C-134.15048122 255.40129707 -136.62698689 252.71068557 -139.10498047 250.01953125 C-142.70510803 246.1097153 -146.24915652 242.16086657 -149.72998047 238.14453125 C-152.15048122 235.40129707 -154.62698689 232.71068557 -157.10498047 230.01953125 C-160.70510803 226.1097153 -164.24915652 222.16086657 -167.72998047 218.14453125 C-170.15048586 215.40129181 -172.62722774 212.71091207 -175.10498047 210.01953125 C-198.0713836 185.03669805 -198.0713836 185.03669805 -197.94873047 176.54296875 C-197.35895314 172.213467 -195.65578248 168.29432544 -194.10888672 164.2265625 C-191.93847051 158.36169858 -190.33785597 152.32402985 -188.66113281 146.30395508 C-187.41461119 141.83354022 -186.12741078 137.40643945 -184.60498047 133.01953125 C-185.21672119 133.18171143 -185.82846191 133.3438916 -186.45874023 133.51098633 C-196.10739391 135.99890785 -205.84061149 138.06442744 -215.5949707 140.09106445 C-217.55934496 140.50157686 -219.52257727 140.91759225 -221.48461914 141.33911133 C-251.27825963 147.73679359 -251.27825963 147.73679359 -266.60498047 138.01953125 C-267.74483968 137.31992238 -268.88604663 136.62250477 -270.02856445 135.92724609 C-272.242533 134.57219834 -274.4504355 133.20717635 -276.65136719 131.83105469 C-279.11503755 130.32002525 -281.5862439 128.90824568 -284.14013672 127.55859375 C-285.06342773 127.05585938 -285.06342773 127.05585938 -286.00537109 126.54296875 C-287.5225947 125.72284788 -289.04964866 124.92098012 -290.57763672 124.12109375 C-293.23754278 121.36381156 -293.66287294 119.37580719 -293.87817383 115.59667969 C-293.33354217 110.45893902 -290.84786886 106.27627038 -288.35498047 101.83203125 C-287.87029297 100.87361328 -287.38560547 99.91519531 -286.88623047 98.92773438 C-282.88117096 91.61040975 -278.4174114 87.92453475 -270.60498047 85.01953125 C-266.00147141 83.71528456 -261.3796646 82.83425323 -256.66748047 82.01953125 C-255.34259499 81.77498353 -254.01813743 81.52810751 -252.6940918 81.27905273 C-250.65775039 80.89610886 -248.62129304 80.5143137 -246.58348083 80.13926697 C-239.95775151 78.91829626 -233.3751562 77.51624287 -226.79248047 76.08203125 C-224.47744584 75.5817094 -222.1623405 75.08171458 -219.84716797 74.58203125 C-218.67250977 74.32808594 -217.49785156 74.07414062 -216.28759766 73.8125 C-209.66748587 72.38700788 -203.04235091 70.9852018 -196.41748047 69.58203125 C-195.02318978 69.28655661 -193.62890268 68.99106503 -192.23461914 68.69555664 C-189.4266207 68.1004648 -186.61859267 67.50551287 -183.81054688 66.91064453 C-178.96462677 65.88397249 -174.11884592 64.8566429 -169.27339172 63.82777405 C-165.8608001 63.10327979 -162.44782733 62.38069826 -159.03393555 61.66235352 C-152.61551509 60.30968956 -146.20291772 58.93786115 -139.8026123 57.50158691 C-136.79551869 56.82795053 -133.78617639 56.16469265 -130.77661133 55.50219727 C-129.34918319 55.18493752 -127.92286067 54.86265397 -126.49780273 54.53491211 C-109.95716089 50.73362209 -109.95716089 50.73362209 -101.95263672 54.15234375 C-98.64792117 56.78071985 -95.87222506 59.76884763 -93.04248047 62.89453125 C-92.13308716 63.88404785 -92.13308716 63.88404785 -91.20532227 64.89355469 C-89.95225743 66.25780352 -88.70169903 67.62435863 -87.45361328 68.99316406 C-85.14094545 71.52818031 -82.81451385 74.05026767 -80.48608398 76.57080078 C-79.46436382 77.67727999 -78.44395088 78.78496817 -77.42504883 79.89404297 C-75.19601531 82.31783882 -72.94318333 84.70122619 -70.60498047 87.01953125 C-66.93445906 78.36271987 -63.94088881 69.47491234 -60.91381836 60.57910156 C-60.04407668 58.02422013 -59.169559 55.47101043 -58.29443359 52.91796875 C-57.72993522 51.26433836 -57.16548128 49.61069281 -56.60107422 47.95703125 C-56.32621185 47.1580542 -56.05134949 46.35907715 -55.76815796 45.53588867 C-54.39707052 41.51390547 -53.20614233 37.52670709 -52.20263672 33.39453125 C-48.80083121 22.12727241 -38.19361776 16.92789183 -28.54248047 11.70703125 C-27.28833855 11.01266685 -26.03507678 10.3167103 -24.78271484 9.61914062 C-22.410049 8.29830226 -20.02959971 6.99852851 -17.63964844 5.70849609 C-15.2711394 4.39028648 -13.09080735 3.00043456 -10.85888672 1.4765625 C-6.93973008 -0.27835398 -4.23358684 -0.63515832 0 0 Z " fill="#FDFDFD" transform="translate(377.60498046875,98.98046875)"/>
<path d="M0 0 C3.92799629 1.27394474 5.87099283 2.43730991 8 6 C8.30839733 15.48057945 2.4167599 26.64399075 -0.7565918 35.46411133 C-5.28916762 48.10761232 -9.49780376 60.77655501 -9.3125 74.375 C-9.30412109 75.03854492 -9.29574219 75.70208984 -9.28710938 76.38574219 C-9.16204291 81.50096061 -8.31348199 86.07444254 -7 91 C-7 92.32 -7 93.64 -7 95 C-10.87684087 96.19287411 -13.91621923 97 -18 97 C-19.8671875 95.12109375 -19.8671875 95.12109375 -21.875 92.4375 C-25.73721374 87.48823935 -29.8115896 82.87330304 -34.125 78.3125 C-41.47802756 70.52173432 -41.47802756 70.52173432 -44.9375 66.5 C-56.43316895 53.26429183 -69.28135669 45.20744628 -86 40 C-85.25 33.375 -85.25 33.375 -83 30 C-80.93772888 29.26873779 -80.93772888 29.26873779 -78.36108398 28.76074219 C-77.39504745 28.56333435 -76.42901093 28.36592651 -75.43370056 28.16253662 C-74.38179031 27.95936829 -73.32988007 27.75619995 -72.24609375 27.546875 C-70.00582188 27.08742237 -67.76558882 26.62778045 -65.52539062 26.16796875 C-62.00536022 25.46089691 -58.48434077 24.75925957 -54.9621582 24.06298828 C-34.33215077 19.95662465 -15.12688202 15.61149609 0 0 Z " fill="transparent" transform="translate(294,198)"/>
</svg>
